<?xml version="1.0" standalone="no"?>
<!DOCTYPE svg PUBLIC "-//W3C//DTD SVG 1.1//EN" "http://www.w3.org/Graphics/SVG/1.1/DTD/svg11.dtd" >
<svg xmlns="http://www.w3.org/2000/svg">
<metadata></metadata>
<defs>
<font id="scapescape" horiz-adv-x="479" >
<font-face units-per-em="2048" ascent="1536" descent="-512" />
<missing-glyph horiz-adv-x="235" />
<glyph horiz-adv-x="0" />
<glyph unicode="&#xd;" horiz-adv-x="235" />
<glyph horiz-adv-x="0" />
<glyph horiz-adv-x="0" />
<glyph unicode=" "  horiz-adv-x="235" />
<glyph unicode="&#x09;" horiz-adv-x="235" />
<glyph unicode="&#xa0;" horiz-adv-x="235" />
<glyph unicode="!" horiz-adv-x="114" d="M6 -4h37v-70h-37v70zM6 39v1460h37v-1460h-37z" />
<glyph unicode="&#x22;" horiz-adv-x="192" d="M45 1585h37l-4 -139h-29zM98 1585h37l-4 -139h-29z" />
<glyph unicode="#" horiz-adv-x="536" d="M-10 725l8 37h125l24 135h-127l9 37h125l57 332h37l-58 -332h136l59 332h37l-60 -332h134l-7 -37h-133l-24 -135h133l-6 -37h-133l-62 -344h-37l62 344h-135l-62 -344h-37l62 344h-127zM160 762h135l24 135h-135z" />
<glyph unicode="$" horiz-adv-x="493" d="M6 61v2v103h35v-94l39 -39h266l39 41v897l-39 39h-280l-60 65v359l66 65h129v74h26v-74h129l56 -57l-23 -23l-43 43h-264l-41 -41v-334l41 -40h280l60 -66v-918l-66 -67h-129v-59h-26v59h-129l-66 67v-2z" />
<glyph unicode="%" horiz-adv-x="544" d="M2 858v215l64 64h75l64 -64v-215l-64 -65h-75zM37 868l39 -41h57l39 41v195l-39 39h-57l-39 -39v-195zM92 236l287 1042h37l-287 -1042h-37zM299 426v215l63 64h76l64 -64v-215l-64 -66h-76zM334 436l39 -41h57l39 41v195l-39 37h-57l-39 -37v-195z" />
<glyph unicode="&#x26;" horiz-adv-x="636" d="M0 63v920l80 80l-6 16l-4 4h2l-27 70v281l66 65h215l65 -65v-281l-98 -102h-12h-160l258 -689v283v2v37l55 41l21 -29l-41 -30v-19v-2v-364l106 -246h45v-35h-61l-90 207v-144l-66 -67h-282zM35 74l41 -41h262l41 41v213l-287 745l-57 -57v-901zM80 1161l26 -71l5 -5h170 l75 76v260l-41 41h-194l-41 -41v-260z" />
<glyph unicode="'" horiz-adv-x="129" d="M45 1585h37l-4 -139h-29z" />
<glyph unicode="(" horiz-adv-x="137" d="M0 -51v1646l70 70h39v-39h-29l-43 -41v-1626l43 -43h29v-39h-39z" />
<glyph unicode=")" horiz-adv-x="137" d="M-18 -84h26l45 43v1626l-45 41h-26v39h38l68 -70v-1646l-68 -72h-38v39z" />
<glyph unicode="*" horiz-adv-x="260" d="M4 1473v18h98v-18h-98zM25 1423l63 64l14 -14l-63 -64zM25 1538l14 14l63 -63l-14 -14zM86 1391v90h20v-90h-20zM86 1483v90h20v-90h-20zM90 1473l14 14l64 -64l-14 -14zM90 1489l64 63l14 -14l-64 -63zM98 1473v18h90v-18h-90z" />
<glyph unicode="+" horiz-adv-x="600" d="M29 721v37h237v239h37v-239h240v-37h-240v-236h-37v236h-237z" />
<glyph unicode="," horiz-adv-x="124" d="M-29 -51l35 51v59h47v-63l-47 -47h-35z" />
<glyph unicode="-" horiz-adv-x="538" d="M31 672v37h467v-37h-467z" />
<glyph unicode="." horiz-adv-x="118" d="M2 0v127h45v-127h-45z" />
<glyph unicode="/" horiz-adv-x="501" d="M10 -84l385 1692h35l-383 -1692h-37z" />
<glyph unicode="0" horiz-adv-x="493" d="M6 66v1368l66 65h282l68 -65v-1368l-68 -68h-282zM41 182l340 1241l-6 9h2l-31 30h-264l-41 -39v-1241zM45 72l37 -37h264l39 41v1239l-338 -1243h-2z" />
<glyph unicode="1" horiz-adv-x="188" d="M6 1466v35h84v-1407q0 -10 3 -26.5t24 -20.5v-43h-97v43q23 4 26 19.5t3 27.5v1372h-43z" />
<glyph unicode="2" horiz-adv-x="491" d="M6 68v141l379 311v903l-39 39h-266l-37 -37v-190h-37v199l66 65h282l66 -65v-940l-377 -312v-100l12 -16l27 -27h264l39 39v92h35v-102l-66 -66h-282z" />
<glyph unicode="3" horiz-adv-x="466" d="M-8 57l22 25l43 -43h265l38 37v901l-73 74h-88q-20 0 -28.5 -6.5t-12.5 -16.5h-39v84h39q4 -12 16 -18.5t25 -6.5h86l75 76v260l-38 39h-265l-43 -43l-22 23l57 57h281l65 -65v-279l-82 -84l82 -86v-917l-65 -66h-281z" />
<glyph unicode="4" horiz-adv-x="497" d="M2 1460v37h86v-37q-6 -2 -12 -5t-10 -11l-3 -4v-783l76 -75h226v833q0 10 -3.5 25.5t-21.5 19.5v37h86v-37q-18 -4 -21.5 -19.5t-3.5 -25.5v-1339q0 -10 3.5 -25.5t21.5 -19.5v-37h-86v37q18 4 21.5 19.5t3.5 25.5v469h-234l-104 104v778h-2q0 10 -5.5 19.5t-17.5 13.5z " />
<glyph unicode="5" horiz-adv-x="493" d="M6 61v2v103h35v-94l39 -39h266l39 41v897l-39 39h-280l-60 65v359l66 65h284l56 -57l-23 -23l-43 43h-264l-41 -41v-334l41 -40h280l60 -66v-918l-66 -67h-284l-66 67v-2z" />
<glyph unicode="6" horiz-adv-x="485" d="M0 66h2v1366l66 65h280l58 -57l-23 -23l-43 43h-264l-39 -39v-374h319l58 -66v-915l-66 -66h-280zM37 76l39 -39h264l39 39v895l-39 39h-303v-934z" />
<glyph unicode="7" horiz-adv-x="485" d="M0 1237v199l66 65h282l66 -65v-555l-203 -195v-600q0 -10 3 -24.5t22 -18.5v-37h-84v37q18 4 21 18.5t3 24.5v608l203 195v536l-41 41h-264l-39 -39v-190h-35z" />
<glyph unicode="8" horiz-adv-x="485" d="M0 63v920l84 86l-14 14l-70 70v281l66 65h282l66 -65v-281l-84 -84l84 -86v-920l-66 -67h-282zM35 74l41 -41h262l41 41v901l-76 76h-194l-74 -76v-901zM35 1161l76 -76h192l76 76v260l-41 41h-262l-41 -41v-260z" />
<glyph unicode="9" horiz-adv-x="485" d="M0 1098v336l66 65h282l66 -67v-1371l-66 -63h-282l-58 57l25 23l41 -43h264l41 41v956h-322zM35 1110l41 -41h303v354l-39 39h-264l-41 -41v-311z" />
<glyph unicode=":" horiz-adv-x="118" d="M2 4v127h45v-127h-45zM2 422v127h45v-127h-45z" />
<glyph unicode=";" horiz-adv-x="120" d="M-33 -51l35 51v59h47v-63l-47 -47h-35zM2 422v127h45v-127h-45z" />
<glyph unicode="&#x3c;" horiz-adv-x="393" d="M-2 662v28l330 330h39v-39h-31l-301 -301v-8l299 -297h28v-39h-38z" />
<glyph unicode="=" horiz-adv-x="557" d="M33 623v36h467v-36h-467zM33 795v36h467v-36h-467z" />
<glyph unicode="&#x3e;" horiz-adv-x="409" d="M8 338v39h29l303 301v6l-301 299h-27v39h37l328 -326v-28l-330 -330h-39z" />
<glyph unicode="?" horiz-adv-x="487" d="M2 1237v199l66 65h282l66 -65v-617l-201 -196v-580h-37v588l2 8l201 195v591l-39 41h-266l-37 -39v-190h-37zM178 0h37v-70h-37v70z" />
<glyph unicode="A" d="M0 -8v37q20 4 23.5 19t3.5 26v1204l32 129q4 8 5.5 20.5t-7.5 22.5q-14 14 -30 14v37h366v-37q-14 -4 -20 -12q-10 -14 -8 -33l38 -141v-1204q0 -10 3.5 -24.5t19.5 -20.5v-37h-86v37q20 4 23.5 19t3.5 26v1210l-50 182h-206l-50 -182v-842h265v-34h-265v-334 q0 -10 3.5 -25.5t21.5 -19.5v-37h-86z" />
<glyph unicode="B" horiz-adv-x="493" d="M6 -2v37q18 4 21.5 19.5t3.5 25.5v1343q0 20 -7.5 28.5t-17.5 12.5v37h350l66 -65v-320l-84 -84l84 -84v-885l-66 -63h-10v-2h-278h-62zM68 35h282l6 6l31 31v868l-80 80h-239v-985zM68 1057h249l70 67l-2 306l-37 36h-280v-409z" />
<glyph unicode="C" horiz-adv-x="487" d="M10 66v1210l60 221h231l2 2q27 2 37 27h45l31 -125h-33l-16 61h-271l-51 -180v-1206l39 -39h264l43 43l23 -25l-56 -55h-282z" />
<glyph unicode="D" horiz-adv-x="493" d="M6 -2v37h25v1431h-25v35h350l66 -65v-1373l-66 -63h-10v-2h-278h-62zM68 35h282l6 6l31 31v1175l-2 183l-37 36h-280v-1431z" />
<glyph unicode="E" horiz-adv-x="473" d="M-8 61v1219l59 223h234h2q31 6 39 27h43l32 -125h-34l-17 63h-272l-51 -182v-840h163q35 0 43 23h37v-86h-39q-10 27 -41 27h-163v-340l39 -37h268l43 41l22 -23l-55 -55h-287z" />
<glyph unicode="F" horiz-adv-x="507" d="M2 0v37q20 4 23.5 19.5t3.5 25.5v1200l59 221h234h2q29 6 34 27h45l33 -125h-35l-16 63h-270l-52 -182v-837h164q20 0 28.5 7t12.5 17h39v-86h-39q-12 27 -41 27h-164v-332q0 -10 3.5 -25.5t23.5 -19.5v-37h-88z" />
<glyph unicode="G" horiz-adv-x="489" d="M2 61v1219l59 221h234h2q27 2 37 27h45l31 -125h-33l-19 61h-270l-51 -180v-1208l43 -43h262l41 41v315l-39 37h-16v37h24l66 -66v-323v-11l-6 -6l-60 -61h-284z" />
<glyph unicode="H" horiz-adv-x="497" d="M0 0v37q20 4 23.5 19.5t3.5 25.5v1341q0 10 -3.5 25.5t-23.5 19.5v37h86v-37q-18 -4 -21.5 -19t-3.5 -26v-972h306v972q0 10 -3.5 25.5t-23.5 19.5v37h86v-37q-18 -4 -21.5 -19t-3.5 -26v-1341q0 -10 3.5 -25.5t21.5 -19.5v-37h-86v37q20 4 23.5 19.5t3.5 25.5v332h-306 v-332q0 -10 3.5 -25.5t21.5 -19.5v-37h-86z" />
<glyph unicode="I" horiz-adv-x="167" d="M10 0v37q20 4 23.5 19.5t3.5 25.5v1341q0 10 -3 25.5t-24 19.5v37h86v-37q-18 -4 -21 -19t-3 -26v-1341q0 -10 3 -25.5t21 -19.5v-37h-86z" />
<glyph unicode="J" horiz-adv-x="534" d="M0 184v37h86v-37q-20 -4 -23.5 -18t-3.5 -25v-61l41 -41h265l36 39v1337q0 10 -3 25.5t-21 19.5v37h86v-37q-20 -4 -23.5 -19.5t-3.5 -25.5v-1347l-65 -66h-281l-65 66v73q0 10 -3.5 24.5t-21.5 18.5z" />
<glyph unicode="K" horiz-adv-x="497" d="M2 2v37q18 4 21.5 19.5t3.5 25.5v1335q0 10 -3.5 25.5t-21.5 19.5v37h86v-37q-18 -4 -21.5 -19t-3.5 -26v-368h226l76 75v318l-3 4q-8 16 -22 16v37h86v-37q-14 -4 -18.5 -13t-6.5 -19h-2v-314l-84 -86l84 -84v-864q0 -10 3.5 -24.5t21.5 -20.5v-37h-86v37 q20 4 23.5 19.5t3.5 25.5v856l-76 74h-226v-930q0 -10 3.5 -25.5t21.5 -19.5v-37h-86z" />
<glyph unicode="L" horiz-adv-x="499" d="M0 1460v37h84v-37q-18 -4 -21.5 -19.5t-3.5 -25.5v-1337l39 -39h264l44 43l22 -23l-55 -57h-283l-65 66v1347q0 10 -3.5 25.5t-21.5 19.5z" />
<glyph unicode="M" horiz-adv-x="628" d="M2 2v37q18 4 21.5 19.5t3.5 25.5v1331q0 10 -3.5 25.5t-21.5 19.5v37h68l209 -426l208 426h70v-37q-20 -4 -23.5 -19.5t-3.5 -25.5v-1331q0 -10 3.5 -25.5t23.5 -19.5v-37h-86v37q18 4 21.5 19.5t3.5 25.5v1282v86l-197 -397h-39l-199 397l2 -86v-1282q0 -10 3.5 -25.5 t21.5 -19.5v-37h-86z" />
<glyph unicode="N" horiz-adv-x="563" d="M0 2v37q18 4 21.5 19.5t3.5 25.5v1335q0 10 -3.5 25.5t-21.5 19.5v37h72l360 -360v278q0 10 -3 25.5t-23 19.5v37h86v-37q-18 -4 -21.5 -19t-3.5 -26v-1335q0 -10 3 -25.5t22 -19.5v-37h-86v37q20 4 23 19.5t3 25.5v1008l-373 372v-1380q0 -10 3.5 -25.5t21.5 -19.5v-37 h-84z" />
<glyph unicode="O" horiz-adv-x="477" d="M-8 66v1368l65 65h283l66 -65v-1368l-66 -68h-283zM27 76l41 -41h264l39 41v1347l-39 39h-264l-41 -39v-1347z" />
<glyph unicode="P" horiz-adv-x="509" d="M0 2v37q18 4 21.5 19.5t3.5 25.5v1352l65 65h283l65 -65v-885l-57 -66h-217v37h201l38 39v864l-38 39h-265l-41 -39v-1341q0 -10 3.5 -25.5t23.5 -19.5v-37h-86z" />
<glyph unicode="Q" horiz-adv-x="491" d="M8 68v1364l66 65h280l66 -65v-1332h-35v1321l-39 41h-264l-39 -41v-1343l39 -39h272l58 -57l-23 -23l-43 43h-272z" />
<glyph unicode="R" horiz-adv-x="536" d="M-2 2v37q18 4 21.5 19.5t3.5 25.5v1348l65 65h283l65 -65v-883l-78 -86l82 -82v-297q0 -10 3 -25.5t22 -19.5v-37h-86v37q20 4 23.5 19.5t3.5 25.5v287l-76 75h-273v-362q0 -10 3 -25.5t24 -19.5v-37h-86zM57 483h267l77 78v860l-41 39h-262l-41 -39v-938z" />
<glyph unicode="S" horiz-adv-x="491" d="M6 66v102h37v-92l37 -39h266l39 39v895l-39 41h-280l-60 65v357l66 65h282l58 -57l-23 -23l-43 43h-264l-39 -39v-336l39 -38h280l58 -66v-917l-66 -66h-282z" />
<glyph unicode="T" horiz-adv-x="514" d="M-14 1440l57 57h342l57 -55l-22 -25l-43 43h-141v-1380q0 -10 3 -24.5t21 -18.5v-37h-84v37q18 4 21.5 18.5t3.5 24.5v1380h-150l-43 -43z" />
<glyph unicode="U" horiz-adv-x="534" d="M0 1460v37h86v-37q-18 -4 -21.5 -19.5t-3.5 -25.5v-1339l39 -39h265l38 39v1341q0 10 -3 24.5t-23 18.5v37h86v-37q-18 -6 -21.5 -20.5t-3.5 -24.5v-1349l-65 -66h-283l-65 66v1349q0 10 -3.5 25.5t-21.5 19.5z" />
<glyph unicode="V" horiz-adv-x="497" d="M2 1462v37h86v-37q-20 -4 -23.5 -19.5t-3.5 -25.5v-975l119 -407h76l109 407v975q0 10 -3.5 25.5t-21.5 19.5v37h86v-37q-20 -4 -23.5 -19.5t-3.5 -25.5v-971l-116 -446h-125l-131 449v968q0 10 -3.5 25.5t-21.5 19.5z" />
<glyph unicode="W" horiz-adv-x="735" d="M0 1462v37h86v-37q-20 -4 -23.5 -19.5t-3.5 -25.5v-975l121 -415h21l110 415v525q0 10 -3 25.5t-21 19.5v37h86v-37q-20 -4 -23.5 -19.5t-3.5 -25.5v-525l123 -415h23l110 415v975q0 10 -3 25.5t-21 19.5v37h86v-37q-18 -4 -21.5 -19.5t-3.5 -25.5v-971l-119 -446h-18 h-17h-8h-14h-21l-112 385l-101 -385h-18h-18h-5h-16h-16l-133 449v968q0 10 -3.5 25.5t-19.5 19.5z" />
<glyph unicode="X" horiz-adv-x="497" d="M0 0v35q14 0 18.5 7t6.5 24v698l155 158l-153 157v344q0 6 -4.5 24.5t-20.5 18.5v35h86v-37q-20 -4 -23.5 -19t-3.5 -26v-332l150 -149l156 156v325q0 10 -3.5 25.5t-23.5 19.5v37h86v-37q-18 -4 -21.5 -19t-3.5 -26v-340l-159 -159l159 -160v-680q0 -10 3.5 -24.5 t21.5 -18.5v-37h-86v37q20 4 23.5 18.5t3.5 24.5v659l-156 158l-148 -147v-668v-10q0 -23 8.5 -28t14.5 -7v-37h-86z" />
<glyph unicode="Y" horiz-adv-x="497" d="M2 1460v37h86v-37q-20 -4 -23.5 -19.5t-3.5 -25.5v-581l150 -148l154 154v575q0 10 -3.5 25.5t-21.5 19.5v37h86v-37q-20 -4 -23.5 -19.5t-3.5 -25.5v-592l-170 -170v-571q0 -10 3.5 -25.5t21.5 -19.5v-37h-84v37q18 4 21.5 19.5t3.5 25.5v571l-168 170v592 q0 10 -3.5 25.5t-21.5 19.5z" />
<glyph unicode="Z" horiz-adv-x="491" d="M6 1370v62l68 65h280l64 -63l-371 -1362l35 -35h264l39 39v92h35v-102l-66 -66h-280l-64 63l371 1360l-35 37h-266l-37 -39v-51h-37z" />
<glyph unicode="[" horiz-adv-x="145" d="M4 -123v1788h107v-31h-70v-1724l2 -4h41h27v-29h-107z" />
<glyph unicode="\" horiz-adv-x="487" d="M-2 1616h35l383 -1708h-35z" />
<glyph unicode="]" horiz-adv-x="151" d="M-6 -94h29h38l5 4v1724h-3h-69v31h108v-1788h-108v29z" />
<glyph unicode="^" horiz-adv-x="450" d="M88 760l105 137h38l99 -137h-29l-90 98l-94 -98h-29z" />
<glyph unicode="_" horiz-adv-x="688" d="M12 -109h672v-36h-672v36z" />
<glyph unicode="`" horiz-adv-x="450" d="M139 1620h39l55 -84h-28z" />
<glyph unicode="a" horiz-adv-x="495" d="M0 -2v37q20 4 23.5 19.5t3.5 25.5v1198l32 129q4 8 5.5 20.5t-7.5 22.5q-14 14 -30 14v37h364v-37q-14 -4 -20 -12q-10 -14 -9 -33l39 -141v-1198q0 -10 3.5 -24.5t19.5 -20.5v-37h-86v37q20 4 23.5 19.5t3.5 25.5v1204l-50 182h-204l-50 -182v-838h263v-34h-263v-332 q0 -10 3.5 -25.5t21.5 -19.5v-37h-86z" />
<glyph unicode="b" horiz-adv-x="493" d="M6 -2v37q18 4 21.5 19.5t3.5 25.5v1343q0 20 -7.5 28.5t-17.5 12.5v37h350l66 -65v-320l-84 -84l84 -84v-885l-66 -63h-10v-2h-278h-62zM68 35h282l6 6l31 31v868l-80 80h-239v-985zM68 1057h249l70 67l-2 306l-37 36h-280v-409z" />
<glyph unicode="c" horiz-adv-x="487" d="M10 66v1210l60 221h231l2 2q27 2 37 27h45l31 -125h-33l-16 61h-271l-51 -180v-1206l39 -39h264l43 43l23 -25l-56 -55h-282z" />
<glyph unicode="d" horiz-adv-x="493" d="M6 -2v37h25v1431h-25v35h350l66 -65v-1373l-66 -63h-10v-2h-278h-62zM68 35h282l6 6l31 31v1175l-2 183l-37 36h-280v-1431z" />
<glyph unicode="e" horiz-adv-x="471" d="M-8 66v1214l59 223h234h2q31 6 39 27h43l30 -125h-32l-17 63h-272l-51 -182v-837h163q35 0 43 22h37v-86h-39q-10 27 -41 27h-163v-338l39 -37h268l41 41l22 -23l-53 -55h-287z" />
<glyph unicode="f" horiz-adv-x="507" d="M2 0v37q20 4 23.5 19.5t3.5 25.5v1200l59 221h234h2q29 6 34 27h45l33 -125h-35l-16 63h-270l-52 -182v-837h164q20 0 28.5 7t12.5 17h39v-86h-39q-12 27 -41 27h-164v-332q0 -10 3.5 -25.5t23.5 -19.5v-37h-88z" />
<glyph unicode="g" horiz-adv-x="489" d="M2 61v1219l59 221h234h2q27 2 37 27h45l31 -125h-33l-19 61h-270l-51 -180v-1208l43 -43h262l41 41v315l-39 37h-16v37h24l66 -66v-323v-11l-6 -6l-60 -61h-284z" />
<glyph unicode="h" horiz-adv-x="497" d="M0 0v37q20 4 23.5 19.5t3.5 25.5v1341q0 10 -3.5 25.5t-23.5 19.5v37h86v-37q-18 -4 -21.5 -19t-3.5 -26v-972h306v972q0 10 -3.5 25.5t-23.5 19.5v37h86v-37q-18 -4 -21.5 -19t-3.5 -26v-1341q0 -10 3.5 -25.5t21.5 -19.5v-37h-86v37q20 4 23.5 19.5t3.5 25.5v332h-306 v-332q0 -10 3.5 -25.5t21.5 -19.5v-37h-86z" />
<glyph unicode="i" horiz-adv-x="167" d="M10 0v37q20 4 23.5 19.5t3.5 25.5v1341q0 10 -3 25.5t-24 19.5v37h86v-37q-18 -4 -21 -19t-3 -26v-1341q0 -10 3 -25.5t21 -19.5v-37h-86z" />
<glyph unicode="j" horiz-adv-x="534" d="M0 184v37h86v-37q-20 -4 -23.5 -18t-3.5 -25v-61l41 -41h265l36 39v1337q0 10 -3 25.5t-21 19.5v37h86v-37q-20 -4 -23.5 -19.5t-3.5 -25.5v-1347l-65 -66h-281l-65 66v73q0 10 -3.5 24.5t-21.5 18.5z" />
<glyph unicode="k" horiz-adv-x="497" d="M2 2v37q18 4 21.5 19.5t3.5 25.5v1335q0 10 -3.5 25.5t-21.5 19.5v37h86v-37q-18 -4 -21.5 -19t-3.5 -26v-368h226l76 75v318l-3 4q-8 16 -22 16v37h86v-37q-14 -4 -18.5 -13t-6.5 -19h-2v-314l-84 -86l84 -84v-864q0 -10 3.5 -24.5t21.5 -20.5v-37h-86v37 q20 4 23.5 19.5t3.5 25.5v856l-76 74h-226v-930q0 -10 3.5 -25.5t21.5 -19.5v-37h-86z" />
<glyph unicode="l" horiz-adv-x="499" d="M0 1460v37h84v-37q-18 -4 -21.5 -19.5t-3.5 -25.5v-1337l39 -39h264l44 43l22 -23l-55 -57h-283l-65 66v1347q0 10 -3.5 25.5t-21.5 19.5z" />
<glyph unicode="m" horiz-adv-x="628" d="M2 2v37q18 4 21.5 19.5t3.5 25.5v1331q0 10 -3.5 25.5t-21.5 19.5v37h68l209 -426l208 426h70v-37q-20 -4 -23.5 -19.5t-3.5 -25.5v-1331q0 -10 3.5 -25.5t23.5 -19.5v-37h-86v37q18 4 21.5 19.5t3.5 25.5v1282v86l-197 -397h-39l-199 397l2 -86v-1282q0 -10 3.5 -25.5 t21.5 -19.5v-37h-86z" />
<glyph unicode="n" horiz-adv-x="563" d="M0 2v37q18 4 21.5 19.5t3.5 25.5v1335q0 10 -3.5 25.5t-21.5 19.5v37h72l360 -360v278q0 10 -3 25.5t-23 19.5v37h86v-37q-18 -4 -21.5 -19t-3.5 -26v-1335q0 -10 3 -25.5t22 -19.5v-37h-86v37q20 4 23 19.5t3 25.5v1008l-373 372v-1380q0 -10 3.5 -25.5t21.5 -19.5v-37 h-84z" />
<glyph unicode="o" horiz-adv-x="477" d="M-8 66v1368l65 65h283l66 -65v-1368l-66 -68h-283zM27 76l41 -41h264l39 41v1347l-39 39h-264l-41 -39v-1347z" />
<glyph unicode="p" horiz-adv-x="509" d="M0 2v37q18 4 21.5 19.5t3.5 25.5v1352l65 65h283l65 -65v-885l-57 -66h-217v37h201l38 39v864l-38 39h-265l-41 -39v-1341q0 -10 3.5 -25.5t23.5 -19.5v-37h-86z" />
<glyph unicode="q" horiz-adv-x="491" d="M8 68v1364l66 65h280l66 -65v-1332h-35v1321l-39 41h-264l-39 -41v-1343l39 -39h272l58 -57l-23 -23l-43 43h-272z" />
<glyph unicode="r" horiz-adv-x="536" d="M-2 2v37q18 4 21.5 19.5t3.5 25.5v1348l65 65h283l65 -65v-883l-78 -86l82 -82v-297q0 -10 3 -25.5t22 -19.5v-37h-86v37q20 4 23.5 19.5t3.5 25.5v287l-76 75h-273v-362q0 -10 3 -25.5t24 -19.5v-37h-86zM57 483h267l77 78v860l-41 39h-262l-41 -39v-938z" />
<glyph unicode="s" horiz-adv-x="481" d="M-4 66v102h35v-92l39 -39h266l39 39v895l-39 41h-281l-53 65v15v196l53 209h234q29 6 37 27h45l32 -123h-34l-17 61h-270l-51 -180v-195l41 -38h280l58 -66v-917l-66 -66h-283z" />
<glyph unicode="t" horiz-adv-x="514" d="M-14 1440l57 57h342l57 -55l-22 -25l-43 43h-141v-1380q0 -10 3 -24.5t21 -18.5v-37h-84v37q18 4 21.5 18.5t3.5 24.5v1380h-150l-43 -43z" />
<glyph unicode="u" horiz-adv-x="534" d="M0 1460v37h86v-37q-18 -4 -21.5 -19.5t-3.5 -25.5v-1339l39 -39h265l38 39v1341q0 10 -3 24.5t-23 18.5v37h86v-37q-18 -6 -21.5 -20.5t-3.5 -24.5v-1349l-65 -66h-283l-65 66v1349q0 10 -3.5 25.5t-21.5 19.5z" />
<glyph unicode="v" horiz-adv-x="497" d="M2 1462v37h86v-37q-20 -4 -23.5 -19.5t-3.5 -25.5v-975l119 -407h76l109 407v975q0 10 -3.5 25.5t-21.5 19.5v37h86v-37q-20 -4 -23.5 -19.5t-3.5 -25.5v-971l-116 -446h-125l-131 449v968q0 10 -3.5 25.5t-21.5 19.5z" />
<glyph unicode="w" horiz-adv-x="735" d="M0 1462v37h86v-37q-20 -4 -23.5 -19.5t-3.5 -25.5v-975l121 -415h21l110 415v525q0 10 -3 25.5t-21 19.5v37h86v-37q-20 -4 -23.5 -19.5t-3.5 -25.5v-525l123 -415h23l110 415v975q0 10 -3 25.5t-21 19.5v37h86v-37q-18 -4 -21.5 -19.5t-3.5 -25.5v-971l-119 -446h-18 h-17h-8h-14h-21l-112 385l-101 -385h-18h-18h-5h-16h-16l-133 449v968q0 10 -3.5 25.5t-19.5 19.5z" />
<glyph unicode="x" horiz-adv-x="497" d="M0 0v35q14 0 18.5 7t6.5 24v698l155 158l-153 157v344q0 6 -4.5 24.5t-20.5 18.5v35h86v-37q-20 -4 -23.5 -19t-3.5 -26v-332l150 -149l156 156v325q0 10 -3.5 25.5t-23.5 19.5v37h86v-37q-18 -4 -21.5 -19t-3.5 -26v-340l-159 -159l159 -160v-680q0 -10 3.5 -24.5 t21.5 -18.5v-37h-86v37q20 4 23.5 18.5t3.5 24.5v659l-156 158l-148 -147v-668v-10q0 -23 8.5 -28t14.5 -7v-37h-86z" />
<glyph unicode="y" horiz-adv-x="497" d="M2 1460v37h86v-37q-20 -4 -23.5 -19.5t-3.5 -25.5v-581l150 -148l154 154v575q0 10 -3.5 25.5t-21.5 19.5v37h86v-37q-20 -4 -23.5 -19.5t-3.5 -25.5v-592l-170 -170v-571q0 -10 3.5 -25.5t21.5 -19.5v-37h-84v37q18 4 21.5 19.5t3.5 25.5v571l-168 170v592 q0 10 -3.5 25.5t-21.5 19.5z" />
<glyph unicode="z" horiz-adv-x="491" d="M6 1370v62l68 65h280l64 -63l-371 -1362l35 -35h264l39 39v92h35v-102l-66 -66h-280l-64 63l371 1360l-35 37h-266l-37 -39v-51h-37z" />
<glyph unicode="{" horiz-adv-x="221" d="M8 788v13v4v12l68 70v708l69 70h39v-39h-28l-43 -41v-698v-17l-25 -22l-43 -41v-2v-4v-2l43 -41l25 -27v-12v-760l43 -43h28v-39h-39l-69 72v770z" />
<glyph unicode="|" horiz-adv-x="145" d="M51 -127v1839h37v-1839h-37z" />
<glyph unicode="}" horiz-adv-x="202" d="M-12 -84h26l45 43v760v12l25 27l43 41v2v4v2l-43 41l-25 22v17v698l-45 41h-26v39h39l67 -70v-708l70 -70v-12v-4v-13l-70 -69v-770l-67 -72h-39v39z" />
<glyph unicode="&#xa9;" horiz-adv-x="411" d="M2 811v471l59 59h226l59 -59v-471l-59 -61h-226zM33 819l37 -37h209l34 37v455l-34 35h-209l-37 -35v-455zM68 872l51 -51h106l47 49l7 4v17h-29v-8l-33 -33h-88l-35 35v188l41 146h94l17 -50h24l-24 101h-35q-10 -20 -31 -21h-65l-47 -178v-199z" />
<glyph unicode="&#xad;" horiz-adv-x="538" d="M31 672v37h467v-37h-467z" />
<glyph unicode="&#xae;" horiz-adv-x="444" d="M43 811v471l59 59h226l59 -59v-471l-59 -61h-226zM74 819l37 -37h208l35 37v455l-35 35h-208l-37 -35v-455zM102 823v31q14 2 17 14q2 10 2 23v323l55 54h72l53 -54v-157l-63 -72l67 -67v-27q0 -12 2 -23q2 -10 19 -14v-31h-72v31q18 2 20 14q0 8 1 13.5t1 9.5v18l-63 64 h-61v-82q0 -12 2 -23q2 -10 18 -14v-31h-70zM152 1004h57l63 63v139l-32 31h-56l-32 -31v-202z" />
<glyph unicode="&#xc0;" d="M0 -8v37q20 4 23.5 19t3.5 26v1204l32 129q4 8 5.5 20.5t-7.5 22.5q-14 14 -30 14v37h366v-37q-14 -4 -20 -12q-10 -14 -8 -33l38 -141v-1204q0 -10 3.5 -24.5t19.5 -20.5v-37h-86v37q20 4 23.5 19t3.5 26v1210l-50 182h-206l-50 -182v-842h265v-34h-265v-334 q0 -10 3.5 -25.5t21.5 -19.5v-37h-86zM139 1620h39l55 -84h-28z" />
<glyph unicode="&#xc1;" d="M0 -8v37q20 4 23.5 19t3.5 26v1204l32 129q4 8 5.5 20.5t-7.5 22.5q-14 14 -30 14v37h366v-37q-14 -4 -20 -12q-10 -14 -8 -33l38 -141v-1204q0 -10 3.5 -24.5t19.5 -20.5v-37h-86v37q20 4 23.5 19t3.5 26v1210l-50 182h-206l-50 -182v-842h265v-34h-265v-334 q0 -10 3.5 -25.5t21.5 -19.5v-37h-86zM180 1544l56 84h38l-65 -84h-29z" />
<glyph unicode="&#xc2;" d="M0 -8v37q20 4 23.5 19t3.5 26v1204l32 129q4 8 5.5 20.5t-7.5 22.5q-14 14 -30 14v37h366v-37q-14 -4 -20 -12q-10 -14 -8 -33l38 -141v-1204q0 -10 3.5 -24.5t19.5 -20.5v-37h-86v37q20 4 23.5 19t3.5 26v1210l-50 182h-206l-50 -182v-842h265v-34h-265v-334 q0 -10 3.5 -25.5t21.5 -19.5v-37h-86zM133 1546l60 84h38l60 -84h-29l-51 45l-49 -45h-29z" />
<glyph unicode="&#xc3;" d="M0 -8v37q20 4 23.5 19t3.5 26v1204l32 129q4 8 5.5 20.5t-7.5 22.5q-14 14 -30 14v37h366v-37q-14 -4 -20 -12q-10 -14 -8 -33l38 -141v-1204q0 -10 3.5 -24.5t19.5 -20.5v-37h-86v37q20 4 23.5 19t3.5 26v1210l-50 182h-206l-50 -182v-842h265v-34h-265v-334 q0 -10 3.5 -25.5t21.5 -19.5v-37h-86zM147 1544v8v23l46 18l53 -18l45 14v-10v-20l-49 -21l-9 2l-45 16z" />
<glyph unicode="&#xc4;" d="M0 -8v37q20 4 23.5 19t3.5 26v1204l32 129q4 8 5.5 20.5t-7.5 22.5q-14 14 -30 14v37h366v-37q-14 -4 -20 -12q-10 -14 -8 -33l38 -141v-1204q0 -10 3.5 -24.5t19.5 -20.5v-37h-86v37q20 4 23.5 19t3.5 26v1210l-50 182h-206l-50 -182v-842h265v-34h-265v-334 q0 -10 3.5 -25.5t21.5 -19.5v-37h-86zM121 1575l18 31h35l19 -31l-19 -31h-35zM225 1575l19 31h35l18 -31l-18 -31h-35z" />
<glyph unicode="&#xc5;" d="M0 -8v37q20 4 23.5 19t3.5 26v1204l32 129q4 8 5.5 20.5t-7.5 22.5q-14 14 -30 14v37h366v-37q-14 -4 -20 -12q-10 -14 -8 -33l38 -141v-1204q0 -10 3.5 -24.5t19.5 -20.5v-37h-86v37q20 4 23.5 19t3.5 26v1210l-50 182h-206l-50 -182v-842h265v-34h-265v-334 q0 -10 3.5 -25.5t21.5 -19.5v-37h-86zM154 1579l26 47h53l29 -47l-29 -47h-53zM166 1579l20 -35h41l21 35l-21 35h-41z" />
<glyph unicode="&#xc6;" />
<glyph unicode="&#xc7;" horiz-adv-x="477" d="M0 66v1210l59 221h232l2 2q27 2 37 27h45l31 -125h-33l-17 61h-270l-51 -180v-1206l39 -39h264l43 43l22 -25l-55 -55h-125v-27l-47 -47h-24l34 51v23h-120z" />
<glyph unicode="&#xc8;" horiz-adv-x="473" d="M-8 61v1219l59 223h234h2q31 6 39 27h43l32 -125h-34l-17 63h-272l-51 -182v-840h163q35 0 43 23h37v-86h-39q-10 27 -41 27h-163v-340l39 -37h268l43 41l22 -23l-55 -55h-287zM139 1620h39l55 -84h-28z" />
<glyph unicode="&#xc9;" horiz-adv-x="473" d="M-8 61v1219l59 223h234h2q31 6 39 27h43l32 -125h-34l-17 63h-272l-51 -182v-840h163q35 0 43 23h37v-86h-39q-10 27 -41 27h-163v-340l39 -37h268l43 41l22 -23l-55 -55h-287zM174 1536l55 84h39l-65 -84h-29z" />
<glyph unicode="&#xca;" horiz-adv-x="473" d="M-8 61v1219l59 223h234h2q31 6 39 27h43l32 -125h-34l-17 63h-272l-51 -182v-840h163q35 0 43 23h37v-86h-39q-10 27 -41 27h-163v-340l39 -37h268l43 41l22 -23l-55 -55h-287zM106 1546l60 84h39l59 -84h-28l-52 45l-49 -45h-29z" />
<glyph unicode="&#xcb;" horiz-adv-x="473" d="M-8 61v1219l59 223h234h2q31 6 39 27h43l32 -125h-34l-17 63h-272l-51 -182v-840h163q35 0 43 23h37v-86h-39q-10 27 -41 27h-163v-340l39 -37h268l43 41l22 -23l-55 -55h-287zM111 1575l18 31h35l18 -31l-18 -31h-35zM215 1575l18 31h35l19 -31l-19 -31h-35z" />
<glyph unicode="&#xcc;" horiz-adv-x="167" d="M-25 1638h39l56 -84h-29zM10 0v37q20 4 23.5 19.5t3.5 25.5v1341q0 10 -3 25.5t-24 19.5v37h86v-37q-18 -4 -21 -19t-3 -26v-1341q0 -10 3 -25.5t21 -19.5v-37h-86z" />
<glyph unicode="&#xcd;" horiz-adv-x="167" d="M10 0v37q20 4 23.5 19.5t3.5 25.5v1341q0 10 -3 25.5t-24 19.5v37h86v-37q-18 -4 -21 -19t-3 -26v-1341q0 -10 3 -25.5t21 -19.5v-37h-86zM39 1536l55 84h39l-65 -84h-29z" />
<glyph unicode="&#xce;" horiz-adv-x="167" d="M-23 1546l60 84h39l59 -84h-29l-51 45l-49 -45h-29zM10 0v37q20 4 23.5 19.5t3.5 25.5v1341q0 10 -3 25.5t-24 19.5v37h86v-37q-18 -4 -21 -19t-3 -26v-1341q0 -10 3 -25.5t21 -19.5v-37h-86z" />
<glyph unicode="&#xcf;" horiz-adv-x="167" d="M-29 1575l19 31h35l18 -31l-18 -31h-35zM10 0v37q20 4 23.5 19.5t3.5 25.5v1341q0 10 -3 25.5t-24 19.5v37h86v-37q-18 -4 -21 -19t-3 -26v-1341q0 -10 3 -25.5t21 -19.5v-37h-86zM76 1575l18 31h35l18 -31l-18 -31h-35z" />
<glyph unicode="&#xd1;" horiz-adv-x="563" d="M0 2v37q18 4 21.5 19.5t3.5 25.5v1335q0 10 -3.5 25.5t-21.5 19.5v37h72l360 -360v278q0 10 -3 25.5t-23 19.5v37h86v-37q-18 -4 -21.5 -19t-3.5 -26v-1335q0 -10 3 -25.5t22 -19.5v-37h-86v37q20 4 23 19.5t3 25.5v1008l-373 372v-1380q0 -10 3.5 -25.5t21.5 -19.5v-37 h-84zM172 1542v8v23l45 18l53 -18l45 14v-10v-21l-49 -20l-8 2l-45 16z" />
<glyph unicode="&#xd2;" horiz-adv-x="477" d="M0 66l66 -68h282l66 68v1368l-66 65h-282l-66 -65v-1368zM35 76v1347l41 39h264l39 -39v-1347l-39 -41h-264zM131 1620h39l55 -84h-28z" />
<glyph unicode="&#xd3;" horiz-adv-x="477" d="M-8 66v1368l65 65h283l66 -65v-1368l-66 -68h-283zM27 76l41 -41h264l39 41v1347l-39 39h-264l-41 -39v-1347zM162 1536l55 84h39l-66 -84h-28z" />
<glyph unicode="&#xd4;" horiz-adv-x="477" d="M0 66v1368l66 65h282l66 -65v-1368l-66 -68h-282zM35 76l41 -41h264l39 41v1347l-39 39h-264l-41 -39v-1347zM125 1546l59 84h39l60 -84h-29l-51 45l-49 -45h-29z" />
<glyph unicode="&#xd5;" horiz-adv-x="477" d="M0 66v1368l66 65h282l66 -65v-1368l-66 -68h-282zM35 76l41 -41h264l39 41v1347l-39 39h-264l-41 -39v-1347zM141 1544v8v23l45 18l54 -18l45 14v-10v-20l-49 -21l-9 2l-45 16z" />
<glyph unicode="&#xd6;" horiz-adv-x="477" d="M0 66l66 -68h282l66 68v1368l-66 65h-282l-66 -65v-1368zM35 76v1347l41 39h264l39 -39v-1347l-39 -41h-264zM121 1575l18 31h35l19 -31l-19 -31h-35zM225 1575l19 31h35l18 -31l-18 -31h-35z" />
<glyph unicode="&#xe0;" d="M0 -8v37q20 4 23.5 19t3.5 26v1204l32 129q4 8 5.5 20.5t-7.5 22.5q-14 14 -30 14v37h366v-37q-14 -4 -20 -12q-10 -14 -8 -33l38 -141v-1204q0 -10 3.5 -24.5t19.5 -20.5v-37h-86v37q20 4 23.5 19t3.5 26v1210l-50 182h-206l-50 -182v-842h265v-34h-265v-334 q0 -10 3.5 -25.5t21.5 -19.5v-37h-86zM139 1620h39l55 -84h-28z" />
<glyph unicode="&#xe1;" d="M0 -8v37q20 4 23.5 19t3.5 26v1204l32 129q4 8 5.5 20.5t-7.5 22.5q-14 14 -30 14v37h366v-37q-14 -4 -20 -12q-10 -14 -8 -33l38 -141v-1204q0 -10 3.5 -24.5t19.5 -20.5v-37h-86v37q20 4 23.5 19t3.5 26v1210l-50 182h-206l-50 -182v-842h265v-34h-265v-334 q0 -10 3.5 -25.5t21.5 -19.5v-37h-86zM180 1536l56 84h38l-65 -84h-29z" />
<glyph unicode="&#xe2;" d="M0 -8v37q20 4 23.5 19t3.5 26v1204l32 129q4 8 5.5 20.5t-7.5 22.5q-14 14 -30 14v37h366v-37q-14 -4 -20 -12q-10 -14 -8 -33l38 -141v-1204q0 -10 3.5 -24.5t19.5 -20.5v-37h-86v37q20 4 23.5 19t3.5 26v1210l-50 182h-206l-50 -182v-842h265v-34h-265v-334 q0 -10 3.5 -25.5t21.5 -19.5v-37h-86zM133 1546l60 84h38l60 -84h-29l-51 45l-49 -45h-29z" />
<glyph unicode="&#xe3;" d="M0 -8v37q20 4 23.5 19t3.5 26v1204l32 129q4 8 5.5 20.5t-7.5 22.5q-14 14 -30 14v37h366v-37q-14 -4 -20 -12q-10 -14 -8 -33l38 -141v-1204q0 -10 3.5 -24.5t19.5 -20.5v-37h-86v37q20 4 23.5 19t3.5 26v1210l-50 182h-206l-50 -182v-842h265v-34h-265v-334 q0 -10 3.5 -25.5t21.5 -19.5v-37h-86zM147 1544v8v23l46 18l53 -18l45 14v-10v-20l-49 -21l-9 2l-45 16z" />
<glyph unicode="&#xe4;" d="M0 -8v37q20 4 23.5 19t3.5 26v1204l32 129q4 8 5.5 20.5t-7.5 22.5q-14 14 -30 14v37h366v-37q-14 -4 -20 -12q-10 -14 -8 -33l38 -141v-1204q0 -10 3.5 -24.5t19.5 -20.5v-37h-86v37q20 4 23.5 19t3.5 26v1210l-50 182h-206l-50 -182v-842h265v-34h-265v-334 q0 -10 3.5 -25.5t21.5 -19.5v-37h-86zM121 1575l18 31h35l19 -31l-19 -31h-35zM225 1575l19 31h35l18 -31l-18 -31h-35z" />
<glyph unicode="&#xe5;" d="M0 -8v37q20 4 23.5 19t3.5 26v1204l32 129q4 8 5.5 20.5t-7.5 22.5q-14 14 -30 14v37h366v-37q-14 -4 -20 -12q-10 -14 -8 -33l38 -141v-1204q0 -10 3.5 -24.5t19.5 -20.5v-37h-86v37q20 4 23.5 19t3.5 26v1210l-50 182h-206l-50 -182v-842h265v-34h-265v-334 q0 -10 3.5 -25.5t21.5 -19.5v-37h-86zM154 1579l26 47h53l29 -47l-29 -47h-53zM166 1579l20 -35h41l21 35l-21 35h-41z" />
<glyph unicode="&#xe7;" horiz-adv-x="477" d="M0 66v1210l59 221h232l2 2q27 2 37 27h45l31 -125h-33l-17 61h-270l-51 -180v-1206l39 -39h264l43 43l22 -25l-55 -55h-125v-27l-47 -47h-24l34 51v23h-120z" />
<glyph unicode="&#xe8;" horiz-adv-x="473" d="M-8 61v1219l59 223h234h2q31 6 39 27h43l32 -125h-34l-17 63h-272l-51 -182v-840h163q35 0 43 23h37v-86h-39q-10 27 -41 27h-163v-340l39 -37h268l43 41l22 -23l-55 -55h-287zM139 1620h39l55 -84h-28z" />
<glyph unicode="&#xe9;" horiz-adv-x="452" d="M-8 61v1219l59 223h234h2q31 6 39 27h43l32 -125h-34l-17 63h-272l-51 -182v-840h163q35 0 43 23h37v-86h-39q-10 27 -41 27h-163v-340l39 -37h268l43 41l22 -23l-55 -55h-287zM174 1536l55 84h39l-65 -84h-29z" />
<glyph unicode="&#xea;" horiz-adv-x="473" d="M-8 61v1219l59 223h234h2q31 6 39 27h43l32 -125h-34l-17 63h-272l-51 -182v-840h163q35 0 43 23h37v-86h-39q-10 27 -41 27h-163v-340l39 -37h268l43 41l22 -23l-55 -55h-287zM106 1546l60 84h39l59 -84h-28l-52 45l-49 -45h-29z" />
<glyph unicode="&#xeb;" horiz-adv-x="473" d="M-8 61v1219l59 223h234h2q31 6 39 27h43l32 -125h-34l-17 63h-272l-51 -182v-840h163q35 0 43 23h37v-86h-39q-10 27 -41 27h-163v-340l39 -37h268l43 41l22 -23l-55 -55h-287zM111 1575l18 31h35l18 -31l-18 -31h-35zM215 1575l18 31h35l19 -31l-19 -31h-35z" />
<glyph unicode="&#xec;" horiz-adv-x="167" d="M-25 1638h39l56 -84h-29zM10 0v37q20 4 23.5 19.5t3.5 25.5v1341q0 10 -3 25.5t-24 19.5v37h86v-37q-18 -4 -21 -19t-3 -26v-1341q0 -10 3 -25.5t21 -19.5v-37h-86z" />
<glyph unicode="&#xed;" horiz-adv-x="167" d="M10 0v37q20 4 23.5 19.5t3.5 25.5v1341q0 10 -3 25.5t-24 19.5v37h86v-37q-18 -4 -21 -19t-3 -26v-1341q0 -10 3 -25.5t21 -19.5v-37h-86zM39 1536l55 84h39l-65 -84h-29z" />
<glyph unicode="&#xee;" horiz-adv-x="167" d="M-27 1546l60 84h39l59 -84h-29l-51 45l-49 -45h-29zM10 0v37q20 4 23.5 19.5t3.5 25.5v1341q0 10 -3 25.5t-24 19.5v37h86v-37q-18 -4 -21 -19t-3 -26v-1341q0 -10 3 -25.5t21 -19.5v-37h-86z" />
<glyph unicode="&#xef;" horiz-adv-x="167" d="M-33 1575l19 31h34l19 -31l-19 -31h-34zM10 0v37q20 4 23.5 19.5t3.5 25.5v1341q0 10 -3 25.5t-24 19.5v37h86v-37q-18 -4 -21 -19t-3 -26v-1341q0 -10 3 -25.5t21 -19.5v-37h-86zM72 1575l18 31h35l18 -31l-18 -31h-35z" />
<glyph unicode="&#xf1;" horiz-adv-x="563" d="M0 2v37q18 4 21.5 19.5t3.5 25.5v1335q0 10 -3.5 25.5t-21.5 19.5v37h72l360 -360v278q0 10 -3 25.5t-23 19.5v37h86v-37q-18 -4 -21.5 -19t-3.5 -26v-1335q0 -10 3 -25.5t22 -19.5v-37h-86v37q20 4 23 19.5t3 25.5v1008l-373 372v-1380q0 -10 3.5 -25.5t21.5 -19.5v-37 h-84zM172 1542v8v23l45 18l53 -18l45 14v-10v-21l-49 -20l-8 2l-45 16z" />
<glyph unicode="&#xf2;" horiz-adv-x="477" d="M-8 66l65 -68h283l66 68v1368l-66 65h-283l-65 -65v-1368zM27 76v1347l41 39h264l39 -39v-1347l-39 -41h-264zM125 1620h39l55 -84h-29z" />
<glyph unicode="&#xf3;" horiz-adv-x="477" d="M-8 66v1368l65 65h283l66 -65v-1368l-66 -68h-283zM27 76l41 -41h264l39 41v1347l-39 39h-264l-41 -39v-1347zM162 1536l55 84h39l-66 -84h-28z" />
<glyph unicode="&#xf4;" horiz-adv-x="477" d="M0 66v1368l66 65h282l66 -65v-1368l-66 -68h-282zM35 76l41 -41h264l39 41v1347l-39 39h-264l-41 -39v-1347zM117 1546l59 84h39l59 -84h-28l-51 45l-50 -45h-28z" />
<glyph unicode="&#xf5;" horiz-adv-x="477" d="M0 66v1368l66 65h282l66 -65v-1368l-66 -68h-282zM35 76l41 -41h264l39 41v1347l-39 39h-264l-41 -39v-1347zM141 1544v8v23l45 18l54 -18l45 14v-10v-20l-49 -21l-9 2l-45 16z" />
<glyph unicode="&#xf6;" horiz-adv-x="477" d="M0 66l66 -68h282l66 68v1368l-66 65h-282l-66 -65v-1368zM35 76v1347l41 39h264l39 -39v-1347l-39 -41h-264zM121 1575l18 31h35l19 -31l-19 -31h-35zM225 1575l19 31h35l18 -31l-18 -31h-35z" />
<glyph unicode="&#x2dc;" horiz-adv-x="415" d="M141 1544v8v23l45 18l54 -18l45 14v-10v-20l-49 -21l-9 2l-45 16z" />
<glyph unicode="&#x2000;" horiz-adv-x="856" />
<glyph unicode="&#x2001;" horiz-adv-x="1712" />
<glyph unicode="&#x2002;" horiz-adv-x="856" />
<glyph unicode="&#x2003;" horiz-adv-x="1712" />
<glyph unicode="&#x2004;" horiz-adv-x="570" />
<glyph unicode="&#x2005;" horiz-adv-x="428" />
<glyph unicode="&#x2006;" horiz-adv-x="285" />
<glyph unicode="&#x2007;" horiz-adv-x="285" />
<glyph unicode="&#x2008;" horiz-adv-x="214" />
<glyph unicode="&#x2009;" horiz-adv-x="342" />
<glyph unicode="&#x200a;" horiz-adv-x="95" />
<glyph unicode="&#x2010;" horiz-adv-x="538" d="M31 672v37h467v-37h-467z" />
<glyph unicode="&#x2011;" horiz-adv-x="538" d="M31 672v37h467v-37h-467z" />
<glyph unicode="&#x2012;" horiz-adv-x="538" d="M31 672v37h467v-37h-467z" />
<glyph unicode="&#x2013;" horiz-adv-x="548" d="M31 672v37h467v-37h-467z" />
<glyph unicode="&#x2014;" horiz-adv-x="735" d="M12 674v37h693v-37h-693z" />
<glyph unicode="&#x2018;" horiz-adv-x="151" d="M37 1470v56v4v14l39 39h22l-24 -45v-8h22v-60h-59z" />
<glyph unicode="&#x2019;" horiz-adv-x="129" d="M33 1470l24 46v8h-24v59h59v-55v-4v-15l-39 -39h-20z" />
<glyph unicode="&#x201c;" horiz-adv-x="186" d="M14 1470v56v4v14l39 39h23l-25 -45v-8h23v-60h-60zM86 1470v56v4v14l39 39h20l-24 -45v-8h24v-60h-59z" />
<glyph unicode="&#x201d;" horiz-adv-x="174" d="M20 1470l25 46v8h-25v59h60v-55v-4v-15l-39 -39h-21zM92 1470l25 46v8h-25v59h60v-55v-4v-15l-39 -39h-21z" />
<glyph unicode="&#x202f;" horiz-adv-x="342" />
<glyph unicode="&#x205f;" horiz-adv-x="428" />
<glyph unicode="&#x20ac;" horiz-adv-x="501" d="M0 664v24h25v123h-25v25h25v440l59 221h231l2 2q27 2 37 27h45l31 -125h-33l-16 61h-270l-52 -180v-446h66v-25h-66v-123h66v-24h-66v-588l39 -39h264l44 43l22 -25l-55 -55h-283l-65 66v598h-25z" />
<glyph unicode="&#x25fc;" horiz-adv-x="1505" d="M0 0v1505h1505v-1505h-1505z" />
</font>
</defs>
</svg>
